<svg width="35" height="41" viewBox="0 0 35 41" fill="none" xmlns="http://www.w3.org/2000/svg">
<g id="g10">
<g id="g12">
<g id="Clip path group">
<mask id="mask0_218_192" style="mask-type:luminance" maskUnits="userSpaceOnUse" x="0" y="0" width="35" height="41">
<g id="clipPath18">
<path id="path16" d="M0 5.58965e-05H35V40.7778H0V5.58965e-05Z" fill="white"/>
</g>
</mask>
<g mask="url(#mask0_218_192)">
<g id="g14">
<g id="g20">
<path id="path22" d="M0.797954 0.267867H33.8366H34.2331H34.2762V0.310976V0.707424V26.681V26.8L34.2765 26.804V26.8058L34.2769 26.8316V26.8326L34.2762 26.9142V27.0775V27.1206H34.2716C34.2187 28.6896 33.7371 30.3064 32.9074 31.8553C32.0571 33.4428 30.8408 34.9599 29.3458 36.2816C27.7762 37.6693 25.8963 38.8455 23.8089 39.664C21.8766 40.4216 19.7657 40.8736 17.5574 40.9043L17.3178 40.9076L17.3174 40.9077C15.1252 40.9077 13.0292 40.5125 11.1055 39.8184C9.05099 39.077 7.19247 37.9942 5.62225 36.6876C4.03869 35.3696 2.74655 33.8221 1.83914 32.1639C0.956472 30.5513 0.43751 28.8335 0.367139 27.1206H0.358398V27.0775V26.7206V26.681V0.707424V0.310976V0.267867H0.40151H0.797954ZM12.59 36.0556H13.0744V34.6785L13.1267 34.4415L12.9593 34.6473L12.6491 34.86L12.4574 34.5984L13.2523 33.957H13.5065V36.0556H13.9808V36.439H12.59V36.0556ZM15.1209 35.843C15.1209 35.7615 15.1316 35.689 15.1523 35.625C15.1734 35.5612 15.2028 35.503 15.2412 35.4507C15.2797 35.3985 15.3249 35.3513 15.3772 35.3096C15.4295 35.2677 15.4858 35.2293 15.5463 35.1945C15.4325 35.1225 15.343 35.0394 15.2778 34.9453C15.2128 34.8513 15.1802 34.7344 15.1802 34.595C15.1802 34.5043 15.1972 34.4194 15.2308 34.3405C15.2645 34.2615 15.3134 34.1929 15.3772 34.1348C15.4412 34.0766 15.5184 34.0313 15.6091 33.9988C15.6996 33.9664 15.802 33.9501 15.9159 33.9501C16.0205 33.9501 16.1156 33.964 16.2017 33.9919C16.2876 34.0197 16.3614 34.0593 16.423 34.1104C16.4846 34.1616 16.5322 34.2237 16.566 34.2969C16.5996 34.3701 16.6165 34.4508 16.6165 34.5391C16.6165 34.6763 16.5857 34.7925 16.524 34.8877C16.4625 34.983 16.3725 35.0702 16.254 35.1492C16.3934 35.2305 16.4985 35.32 16.5694 35.4176C16.6402 35.5153 16.6757 35.6408 16.6757 35.7941C16.6757 35.8987 16.6566 35.9933 16.6183 36.0782C16.5799 36.1631 16.5258 36.2357 16.4562 36.2962C16.3864 36.3565 16.3028 36.4036 16.2051 36.4372C16.1074 36.471 16.0006 36.4879 15.8843 36.4879C15.7682 36.4879 15.663 36.472 15.5689 36.4408C15.4748 36.4093 15.3947 36.3658 15.3283 36.3101C15.2623 36.2542 15.2111 36.1868 15.175 36.1079C15.139 36.0289 15.1209 35.9405 15.1209 35.843ZM16.2434 35.7976C16.2434 35.7442 16.2307 35.6954 16.2051 35.6511C16.1796 35.607 16.1465 35.567 16.1058 35.531C16.0651 35.495 16.0199 35.4618 15.9698 35.4316C15.9199 35.4015 15.8694 35.3723 15.8183 35.3445C15.7089 35.4071 15.634 35.4751 15.5934 35.5483C15.5526 35.6216 15.5323 35.6942 15.5323 35.7662C15.5323 35.8593 15.5643 35.9387 15.6282 36.005C15.6922 36.0713 15.7811 36.1043 15.8948 36.1043C15.9994 36.1043 16.0837 36.0787 16.1476 36.0276C16.2116 35.9765 16.2434 35.8999 16.2434 35.7976ZM15.6125 34.6019C15.6125 34.6576 15.623 34.7065 15.6439 34.7483C15.6649 34.7902 15.6932 34.8267 15.7294 34.8581C15.7652 34.8895 15.806 34.9185 15.8513 34.9453C15.8966 34.972 15.9437 34.997 15.9925 35.0202C16.1319 34.9016 16.2017 34.7716 16.2017 34.6298C16.2017 34.5322 16.1732 34.4584 16.1162 34.4085C16.0593 34.3584 15.9901 34.3335 15.9088 34.3335C15.8065 34.3335 15.7316 34.3602 15.684 34.4136C15.6363 34.4671 15.6125 34.5299 15.6125 34.6019ZM17.7184 35.2156C17.7184 34.7879 17.7917 34.4699 17.938 34.2621C18.0845 34.0541 18.2947 33.9501 18.5689 33.9501C18.8618 33.9501 19.0768 34.0529 19.214 34.2585C19.351 34.4643 19.4196 34.7831 19.4196 35.2156C19.4196 35.6453 19.3458 35.9649 19.1981 36.1741C19.0505 36.3831 18.8397 36.4879 18.5654 36.4879C18.275 36.4879 18.0612 36.3779 17.924 36.1584C17.787 35.9387 17.7184 35.6245 17.7184 35.2156ZM18.1716 35.2156C18.1716 35.499 18.2024 35.7181 18.2639 35.8725C18.3255 36.027 18.4273 36.1043 18.5689 36.1043C18.7061 36.1043 18.8067 36.0335 18.8704 35.8919C18.9344 35.7499 18.9664 35.5245 18.9664 35.2156C18.9664 34.9342 18.9362 34.717 18.8757 34.5636C18.8154 34.4102 18.7119 34.3335 18.5654 34.3335C18.426 34.3335 18.3255 34.4055 18.2639 34.5496C18.2024 34.6938 18.1716 34.9156 18.1716 35.2156ZM22.1772 35.7593H21.7938V36.439H21.372V35.7593H20.3159V35.5013L21.4209 33.9815H21.7938V35.3966H22.1772V35.7593ZM21.372 34.8634L21.4034 34.5705H21.3895L21.271 34.8215L20.9085 35.2922L20.7341 35.4245L20.9574 35.3966H21.372V34.8634ZM12.2079 10.2769C11.1791 9.69779 10.7393 10.5413 9.72818 10.7511C8.60877 10.9833 8.31069 10.1098 7.83395 9.33068C8.6224 9.49631 8.66832 9.86698 9.69632 9.16283C10.4516 8.6455 11.4082 8.98431 11.967 9.6209L11.3454 7.94772C13.2005 7.93261 15.2901 7.69039 17.1209 7.94772L17.3525 7.98653C19.3105 8.37305 20.7879 10.0493 20.7879 12.1708C20.7879 13.7237 19.8993 15.449 18.5996 16.3667V16.5615C20.3388 16.1624 22.3268 14.7067 22.5051 13.8886C22.2507 13.7893 21.6397 13.4384 21.6474 13.3968C20.9664 12.9083 20.6744 11.9351 20.835 11.1978C20.9956 10.4606 21.3385 10.1043 21.8285 9.80713C22.1661 9.63616 22.4716 9.53261 22.8375 9.49616L31.9891 8.2052C32.0322 8.51453 32.0621 8.82935 32.0769 9.14283C32.3421 14.7402 28.0174 19.4948 22.4199 19.7599C20.5057 19.8504 18.0365 18.7911 17.1674 16.9818C17.1223 16.9893 17.0765 16.9969 17.0305 17.0027C16.698 17.0394 16.3888 17.0963 16.1009 17.1705C15.8086 18.3874 18.299 19.3331 21.1855 19.7973L20.7231 20.4668C21.2692 20.2944 21.8505 20.2012 22.4534 20.2012C25.6265 20.2012 28.1999 22.7745 28.1999 25.9479C28.1999 29.1209 25.6265 31.6939 22.4534 31.6939C19.2805 31.6939 16.7073 29.1209 16.7073 25.9479C16.7073 25.6216 16.7348 25.3021 16.787 24.9911L16.9834 25.0199L20.4622 25.2562C20.2897 25.5385 20.1897 25.8705 20.1897 26.2259C20.1897 27.2544 21.0236 28.0883 22.0519 28.0883C23.0802 28.0883 23.914 27.2544 23.914 26.2259C23.914 25.2141 23.1064 24.3904 22.1008 24.3645L22.0947 24.3462L21.8661 24.3733C21.8437 24.3754 21.8211 24.3782 21.7985 24.3809L18.802 24.733C17.4935 24.9479 16.3605 25.0344 15.394 25.0033L11.2486 30.6578L10.7303 29.285C7.80018 29.039 8.8141 30.3947 9.47069 30.9493C9.53484 31.0034 9.53558 31.2301 9.47469 31.2796C8.39825 31.1973 7.45795 30.3338 7.45795 29.2093C7.45795 28.0849 8.39218 27.124 9.54344 27.124C10.312 27.124 10.9833 27.5399 11.3451 28.1588L13.2273 22.2227H12.9295L11.7905 23.8597C11.119 23.1584 10.5956 22.3142 10.2713 21.377L7.0904 17.4384C6.95544 17.7434 6.74877 18.0095 6.49277 18.2168L5.8581 16.5354C4.45158 16.4656 3.58373 16.8052 4.31232 17.8741L4.61736 17.8778L4.57766 17.3496H5.46032L5.32121 19.1971L5.32225 19.2104H5.32018L5.31795 19.2436H4.71351L4.71099 19.1205L4.6664 18.5265C3.86166 18.2391 3.10003 17.6052 3.10003 16.595C3.10003 15.8172 3.62699 15.0316 4.37721 14.6889L3.96951 9.27557L2.98329 8.02461H4.65099C4.58832 7.33157 4.80255 6.58135 5.20981 5.97616C4.84032 6.03868 4.49884 6.23661 4.16907 6.78535C3.95114 5.59661 4.94832 4.06772 6.30729 4.29616C7.67203 4.52579 7.54506 4.13083 8.26225 3.59572C8.21099 4.03868 8.20284 4.48416 8.10492 4.86861C9.51084 5.02149 9.44684 4.50757 10.3508 3.8332C10.1894 5.22905 10.3381 6.64075 8.62551 7.04075C7.06432 7.40535 5.89766 6.49246 4.82832 8.02461H5.0181H7.05262L6.06907 9.27216L5.66995 14.5674C6.0064 14.6477 6.31158 14.8101 6.56255 15.0316L9.10121 16.5559L9.65766 18.6178H9.91884C10.1854 15.1661 13.0257 12.4353 16.5225 12.3405L16.3867 11.9997L12.8716 12.016L12.2079 10.2769ZM12.0501 9.72179C12.1609 9.86461 12.2522 10.02 12.3177 10.1822C13.815 10.4508 16.5923 12.1781 15.6655 9.72179H12.0501ZM14.4925 4.72313H15.3978V4.94061H15.6837V5.64416C15.5005 5.71972 15.3714 5.90031 15.3714 6.11068C15.3714 6.33409 15.5166 6.52298 15.7175 6.58964L15.7203 6.59053L15.7285 6.59335L15.73 6.5935L15.7347 6.59498H15.735L15.7405 6.59661L15.7436 6.59735L15.7523 6.59987H15.7526L15.7554 6.60046L15.7584 6.6012L15.7614 6.60194L15.7618 6.60209L15.7643 6.60268L15.7674 6.60327L15.7704 6.60401L15.7759 6.60505L15.7765 6.60535L15.7793 6.60579L15.7825 6.60639L15.7855 6.60683L15.7864 6.60713L15.7945 6.60846L15.7975 6.6089L15.799 6.6092L15.8028 6.60964H15.8037L15.8067 6.61024L15.8098 6.61068L15.8114 6.61098L15.8129 6.61113L15.8159 6.61157L15.8193 6.61186L15.8246 6.61246L15.8285 6.61276L15.8316 6.61305L15.8347 6.61335L15.8409 6.61379L15.844 6.61409L15.8498 6.61453H15.8504L15.8627 6.61483H15.8631L15.8686 6.61498H15.8695H15.8726H15.8757C16.1544 6.61498 16.3802 6.3892 16.3802 6.11068L16.38 6.1012L16.3799 6.09764L16.3796 6.08876L16.379 6.07957C16.3787 6.07364 16.3783 6.06787 16.3777 6.06224L16.3771 6.05527L16.3769 6.05438L16.3759 6.04653V6.0452C16.3744 6.03453 16.3728 6.02387 16.3707 6.0135L16.3697 6.0089L16.3677 6.00001V5.99942L16.3634 5.98224L16.3611 5.9735L16.3608 5.97261L16.358 5.96239L16.3574 5.96076L16.3559 5.95616C16.331 5.87898 16.2883 5.81009 16.2325 5.75409L16.2316 5.7535L16.2254 5.74727L16.219 5.74135L16.2148 5.7375L16.2123 5.73527L16.2058 5.72935L16.1991 5.72357L16.1965 5.7215L16.1963 5.72135L16.1873 5.71409L16.187 5.71394L16.1854 5.71261C16.1799 5.70831 16.1743 5.70416 16.1686 5.69987L16.1676 5.69927L16.1639 5.69676L16.1577 5.69261L16.1568 5.69187L16.1494 5.68698L16.1474 5.68594L16.1458 5.68461C16.1396 5.68061 16.1332 5.6769 16.1267 5.6732C16.1196 5.6692 16.1125 5.6652 16.1052 5.66164L16.1033 5.66031L16.0953 5.65646L16.0944 5.65616L16.0871 5.65275V5.52179C16.0871 5.10639 16.4525 4.5612 16.8676 4.55009L17.638 4.52935L16.5369 7.41112L13.388 7.42194L12.2894 4.54016L13.0211 4.55009C13.4365 4.55572 13.8014 5.10639 13.8014 5.52179V5.65335C13.6996 5.7009 13.6165 5.78135 13.5655 5.88105L13.5649 5.88224L13.5609 5.89009L13.56 5.89216L13.5551 5.90268L13.5548 5.90312L13.5535 5.90624L13.5498 5.91438L13.5465 5.92268L13.5452 5.92579L13.5451 5.92609L13.5411 5.93705L13.5409 5.93735L13.5402 5.93942L13.5371 5.94801L13.5368 5.9489C13.5303 5.96846 13.5248 5.98861 13.5206 6.00905C13.5172 6.0252 13.5147 6.0415 13.5129 6.05809L13.5128 6.06001C13.512 6.06742 13.5114 6.07498 13.511 6.08238L13.5108 6.0849V6.08757L13.5104 6.09764V6.1012L13.5103 6.11068C13.5103 6.3892 13.7359 6.61498 14.0144 6.61498H14.0177H14.0209H14.0217L14.0273 6.61483H14.0274L14.0399 6.61453H14.0405L14.0461 6.61409L14.0494 6.61379L14.0556 6.61335L14.0587 6.61305L14.062 6.61276L14.0658 6.61246L14.0711 6.61186L14.0744 6.61157L14.0774 6.61113L14.079 6.61098L14.0805 6.61068L14.0836 6.61024L14.0865 6.60964L14.0897 6.60935L14.0914 6.6092L14.0928 6.6089L14.0957 6.60846L14.0987 6.60802L14.1039 6.60713L14.1049 6.60683L14.1079 6.60639L14.1108 6.60579L14.114 6.60535L14.1141 6.6052L14.1199 6.60401L14.1228 6.60327L14.1258 6.60268L14.1286 6.60209L14.1467 6.59735L14.1497 6.59661C14.3627 6.53749 14.5188 6.34253 14.5188 6.11068C14.5188 5.90031 14.3898 5.71972 14.2065 5.64416V4.94061H14.4925V4.72313ZM27.1348 22.1085C29.5642 21.1233 31.8199 19.4769 32.3347 15.375C31.8554 17.4002 30.8034 18.5208 29.4843 19.1418C28.0735 19.8059 26.3575 19.8988 24.7107 19.9156C25.8233 20.3957 26.575 21.0859 27.1348 22.1085ZM33.3971 1.14698H1.23766V26.2415H1.24077L1.24018 26.285L1.23751 26.5664V26.6775L1.23766 26.7206C1.23766 28.3716 1.70107 30.0408 2.53692 31.6129C3.39321 33.2231 4.64077 34.7316 6.18225 36.0142C7.67603 37.2575 9.44477 38.2874 11.4008 38.9926C13.2319 39.6528 15.2279 40.0285 17.3174 40.0285V40.0286L17.5471 40.0285C19.6468 39.9994 21.6548 39.569 23.4938 38.8474C25.4805 38.0676 27.2704 36.9476 28.7652 35.6258C30.2086 34.3496 31.3756 32.8873 32.1772 31.3649C32.963 29.8725 33.3978 28.3219 33.3978 26.8322C33.3978 26.7701 33.3982 26.7538 33.3987 26.7461L33.3985 26.7253L33.3987 26.7243H33.3971V26.681V26.615L33.3925 26.2852L33.3919 26.2415H33.3971V1.14698Z" fill="#005B9F"/>
</g>
</g>
</g>
</g>
</g>
</g>
</svg>
